<svg xmlns="http://www.w3.org/2000/svg" width="1365" height="768" viewBox="0 0 1365 768">
<g>
<path d="M 909.71 429.11 C899.35,431.48 876.69,432.47 866.32,431.01 C856.91,429.68 844.46,426.11 834.72,421.95 C800.36,407.27 772.89,375.17 765.01,340.49 C755.47,298.50 772.88,254.58 809.99,227.07 C842.19,203.19 885.87,196.46 923.32,209.61 C947.36,218.05 955.94,226.83 955.97,243.00 C955.98,248.84 955.45,251.61 953.61,255.50 C948.69,265.88 938.43,272.42 927.00,272.45 C921.24,272.46 919.24,271.87 909.35,267.25 C889.86,258.12 876.43,257.75 859.66,265.86 C844.87,273.03 832.75,288.06 828.93,304.00 C827.31,310.76 827.33,325.94 828.98,331.97 C837.05,361.59 867.59,380.73 895.29,373.51 C898.43,372.70 905.35,369.90 910.66,367.29 C919.44,362.99 920.99,362.56 927.45,362.56 C944.12,362.56 956.46,375.07 956.49,392.00 C956.50,399.82 952.91,408.12 947.42,412.94 C940.56,418.96 925.03,425.62 909.71,429.11 ZM 712.50 428.62 C704.66,430.59 699.26,431.21 687.50,431.51 C671.56,431.92 666.20,431.37 652.86,427.97 C593.99,412.97 554.81,355.93 564.53,299.38 C566.54,287.66 569.13,280.02 575.03,268.44 C581.37,255.99 588.13,246.99 598.55,237.13 C621.89,215.03 651.97,203.00 683.89,203.00 C708.97,203.00 738.60,212.33 748.87,223.47 C754.83,229.94 756.35,233.98 756.42,243.50 C756.47,250.30 756.07,252.26 753.80,256.59 C748.47,266.75 738.97,272.47 727.50,272.44 C721.25,272.42 719.49,271.92 711.00,267.81 C699.09,262.05 696.27,261.13 687.98,260.36 C666.14,258.33 644.34,271.15 634.14,292.00 C622.82,315.16 626.89,340.00 644.95,358.03 C656.62,369.68 668.77,375.03 683.46,374.98 C693.32,374.94 697.97,373.67 710.00,367.72 C719.88,362.84 720.95,362.54 728.00,362.57 C734.11,362.60 736.45,363.10 740.62,365.26 C758.74,374.62 762.59,398.27 748.26,412.17 C741.27,418.95 729.58,424.33 712.50,428.62 ZM 543.71 429.84 C538.05,431.95 536.83,432.00 486.21,431.97 C439.22,431.94 434.03,431.77 429.33,430.15 C420.37,427.05 415.04,421.92 411.01,412.53 C409.05,407.94 409.00,405.82 409.00,318.01 C409.00,228.46 409.01,228.16 411.15,222.55 C420.53,198.05 456.59,196.60 467.86,220.28 L 470.83 226.50 L 471.41 271.50 C471.73,296.25 471.99,328.31 472.00,342.75 L 472.00 369.00 L 503.68 369.00 C529.61,369.00 536.40,369.29 541.04,370.59 C554.08,374.25 563.36,386.36 563.42,399.79 C563.45,409.42 560.91,415.98 554.65,422.39 C551.03,426.09 547.76,428.32 543.71,429.84 ZM 892.72 347.59 C881.45,350.59 870.91,347.70 862.49,339.30 C850.63,327.48 850.65,307.42 862.53,295.53 C872.02,286.04 886.75,283.68 898.59,289.74 C905.17,293.12 909.71,297.63 913.21,304.28 C916.42,310.37 916.42,324.63 913.21,330.72 C908.46,339.75 901.91,345.14 892.72,347.59 ZM 666.50 512.00 C661.17,515.29 652.58,515.72 647.50,512.96 C641.82,509.87 639.97,508.05 637.88,503.50 C635.70,498.75 635.48,492.18 637.35,487.72 C640.57,480.06 651.05,474.20 658.95,475.63 C678.06,479.09 682.80,501.93 666.50,512.00 ZM 849.23 512.12 C845.91,513.54 842.41,514.00 834.92,514.00 L 825.00 514.00 L 825.00 476.00 L 833.82 476.00 C844.46,476.00 850.50,477.84 855.37,482.57 C858.57,485.68 860.99,491.03 860.99,495.00 C860.99,501.88 855.93,509.25 849.23,512.12 ZM 456.50 511.00 C455.12,513.66 454.44,514.00 450.42,514.00 C447.92,514.00 446.08,513.66 446.33,513.25 C446.58,512.84 449.55,505.58 452.93,497.12 C459.43,480.87 460.84,477.11 463.27,476.25 C464.00,475.99 464.83,475.99 465.91,476.00 C466.07,476.00 466.24,476.00 466.42,476.00 C470.52,476.00 470.88,476.22 472.32,479.75 C480.07,498.60 486.00,513.28 486.00,513.60 C486.00,513.82 484.03,514.00 481.62,514.00 C477.70,514.00 477.11,513.69 476.00,511.00 C474.76,508.01 474.74,508.00 466.40,508.00 C458.13,508.00 458.04,508.03 456.50,511.00 ZM 888.69 511.00 C887.68,513.69 887.12,514.00 883.28,514.00 C880.50,514.00 879.02,513.56 879.05,512.75 C879.08,512.06 882.38,503.62 886.38,494.00 L 893.65 476.50 L 898.21 476.20 L 902.77 475.90 L 907.29 486.70 C916.26,508.18 918.00,512.48 918.00,513.23 C918.00,513.65 916.07,514.00 913.72,514.00 C909.88,514.00 909.32,513.69 908.31,511.00 L 907.17 508.00 L 889.83 508.00 ZM 777.00 498.00 L 777.00 514.00 L 769.00 514.00 L 769.00 476.00 L 777.00 476.00 L 777.00 491.00 L 795.00 491.00 L 795.00 476.00 L 803.00 476.00 L 803.00 514.00 L 795.00 514.00 L 795.00 498.00 ZM 931.00 508.67 L 931.00 514.00 L 923.00 514.00 L 923.00 476.00 L 931.00 476.00 L 931.03 484.75 L 931.05 493.50 L 934.70 489.50 C944.40,478.85 946.37,476.49 948.66,476.12 C949.31,476.01 949.99,476.07 950.87,476.14 C951.12,476.16 951.40,476.18 951.69,476.20 L 956.21 476.50 L 950.34 483.00 C945.39,488.49 943.03,490.63 942.96,492.85 C942.91,494.57 944.25,496.34 946.86,499.76 C947.42,500.50 948.04,501.32 948.71,502.22 C949.36,503.10 949.97,503.91 950.53,504.66 C955.02,510.67 956.65,512.84 956.14,513.60 C955.86,514.03 954.89,514.01 953.39,513.98 C953.05,513.97 952.69,513.96 952.31,513.96 C951.93,513.96 951.58,513.96 951.26,513.96 C950.30,513.97 949.59,513.98 948.93,513.80 C946.78,513.24 945.13,510.77 937.26,500.29 C936.12,498.78 935.80,498.84 933.51,500.99 C931.44,502.94 931.00,504.28 931.00,508.67 ZM 512.40 513.61 C506.26,516.17 495.67,514.75 490.72,510.70 C488.03,508.50 488.03,508.50 489.94,506.02 L 491.86 503.53 L 496.46 505.77 C501.47,508.20 507.90,508.70 509.80,506.80 C513.06,503.54 509.76,499.79 502.50,498.53 C496.83,497.54 491.24,494.14 490.15,491.00 C487.99,484.80 492.22,477.82 499.29,475.92 C503.69,474.74 511.92,476.06 515.74,478.56 C518.45,480.34 518.49,480.81 516.14,483.86 L 514.33 486.21 L 510.21 484.11 C503.66,480.76 498.00,481.83 498.00,486.41 C498.00,488.92 498.89,489.41 509.00,492.49 C516.73,494.85 519.00,497.23 519.00,502.95 C519.00,508.44 516.99,511.69 512.40,513.61 ZM 757.50 513.14 C752.04,515.62 746.48,515.44 740.31,512.57 C728.21,506.93 725.21,492.15 734.19,482.41 C740.72,475.32 750.02,473.54 758.50,477.76 C764.10,480.54 764.33,481.04 761.43,484.07 L 758.78 486.84 L 755.64 484.92 C751.48,482.39 745.96,482.46 742.61,485.09 C730.78,494.39 740.92,512.70 754.25,506.11 L 758.32 504.09 L 761.20 506.14 C763.65,507.88 763.89,508.43 762.79,509.76 C762.08,510.61 759.70,512.14 757.50,513.14 ZM 436.00 513.98 C412.17,520.82 399.46,488.66 421.48,477.25 C426.24,474.78 434.72,475.11 439.75,477.96 C442.09,479.29 444.00,480.93 444.00,481.61 C444.00,483.29 438.81,487.29 438.08,486.18 C435.92,482.88 428.40,482.06 424.04,484.64 C414.99,489.98 416.81,504.07 426.94,507.10 C430.38,508.13 431.39,508.01 435.17,506.15 L 439.47 504.02 L 441.99 506.55 L 444.50 509.08 L 442.00 511.03 C440.62,512.10 437.92,513.43 436.00,513.98 ZM 543.22 498.75 L 542.95 514.00 L 535.05 514.00 L 534.78 498.75 L 534.50 483.50 L 523.00 482.90 L 523.00 476.00 L 555.00 476.00 L 555.00 482.90 L 543.50 483.50 ZM 602.00 507.00 L 602.00 514.00 L 574.00 514.00 L 574.00 476.00 L 583.00 476.00 L 583.00 507.00 ZM 650.98 506.17 C655.16,508.36 656.08,508.41 660.36,506.62 C665.08,504.65 668.00,500.52 668.00,495.82 C668.00,484.52 656.46,478.88 648.42,486.25 C641.95,492.19 643.22,502.08 650.98,506.17 ZM 633.00 507.00 L 633.00 514.00 L 606.00 514.00 L 606.00 476.00 L 614.00 476.00 L 614.00 507.00 ZM 833.00 483.00 L 833.00 507.00 L 838.05 507.00 C847.17,507.00 852.00,502.82 852.00,494.92 C852.00,487.50 846.09,483.02 836.25,483.01 ZM 568.00 476.00 L 568.00 514.00 L 560.00 514.00 L 560.00 476.00 ZM 817.00 476.00 L 817.00 514.00 L 809.00 514.00 L 809.00 476.00 ZM 874.00 476.00 L 874.00 514.00 L 866.00 514.00 L 866.00 476.00 ZM 849.40 554.86 C842.40,558.05 835.00,553.66 835.00,546.30 C835.00,541.28 837.16,538.33 841.87,536.92 C845.01,535.98 846.22,536.06 848.82,537.41 C851.77,538.93 855.00,543.45 855.00,546.05 C855.00,548.66 851.73,553.80 849.40,554.86 ZM 761.08 553.08 C754.35,559.80 742.16,553.47 744.43,544.43 C745.27,541.09 749.09,537.27 752.43,536.43 C761.45,534.16 767.78,546.37 761.08,553.08 ZM 626.08 553.08 C621.22,557.94 613.25,556.70 610.36,550.64 C605.47,540.38 618.56,531.35 626.10,539.79 C630.07,544.23 630.06,549.09 626.08,553.08 ZM 590.80 554.80 C590.12,555.48 586.86,556.00 583.26,556.00 L 576.93 556.00 L 577.21 546.25 L 577.50 536.50 L 581.40 536.18 C589.28,535.54 592.88,538.49 590.84,543.91 C590.25,545.46 590.30,546.70 590.96,547.36 C592.37,548.77 592.27,553.33 590.80,554.80 ZM 784.00 552.50 C784.00,554.42 783.55,556.00 783.00,556.00 C782.40,556.00 782.00,552.00 782.00,546.00 L 782.00 536.00 L 787.05 536.00 C791.07,536.00 792.59,536.50 794.55,538.45 C797.68,541.58 797.66,544.48 794.50,547.41 L 792.00 549.73 L 794.00 552.27 C796.23,555.11 796.47,556.00 795.01,556.00 C794.46,556.00 793.00,554.43 791.76,552.51 C790.09,549.93 788.79,549.02 786.75,549.01 C784.27,549.00 784.00,549.35 784.00,552.50 ZM 649.00 552.50 C649.00,554.42 648.55,556.00 648.00,556.00 C647.40,556.00 647.00,552.00 647.00,546.00 L 647.00 536.00 L 652.05 536.00 C656.07,536.00 657.59,536.50 659.55,538.45 C662.66,541.57 662.67,544.56 659.57,547.32 L 657.14 549.48 L 659.15 552.74 C661.84,557.09 659.93,556.91 656.57,552.50 C654.80,550.18 653.07,549.00 651.45,549.00 C649.32,549.00 649.00,549.45 649.00,552.50 ZM 614.17 551.69 C617.06,554.75 621.40,554.70 624.55,551.55 C627.55,548.55 627.68,545.13 624.93,541.63 C622.51,538.57 617.75,538.09 614.22,540.56 C611.21,542.67 611.18,548.50 614.17,551.69 ZM 839.45 551.55 C844.28,556.37 852.00,553.16 852.00,546.33 C852.00,539.66 844.27,536.52 839.31,541.17 C836.25,544.06 836.30,548.40 839.45,551.55 ZM 749.17 551.69 C752.06,554.75 756.40,554.70 759.55,551.55 C762.55,548.55 762.68,545.13 759.93,541.63 C757.33,538.33 751.98,538.02 749.00,541.00 C746.32,543.68 746.41,548.74 749.17,551.69 ZM 682.00 554.00 C681.00,555.87 679.00,556.78 679.00,555.37 C679.00,553.64 687.35,536.00 688.17,536.00 C688.69,536.00 690.71,539.49 692.66,543.75 C697.96,555.33 698.18,556.00 696.54,556.00 C695.77,556.00 694.85,555.10 694.50,554.00 C693.97,552.33 692.99,552.00 688.47,552.00 C684.09,552.00 682.87,552.38 682.00,554.00 ZM 543.50 554.00 C543.15,555.10 542.23,556.00 541.45,556.00 C540.29,556.00 540.37,555.14 541.90,551.25 C545.08,543.20 548.45,536.67 549.61,536.29 C550.86,535.88 559.42,554.93 558.42,555.89 C558.07,556.22 557.10,555.49 556.27,554.25 C555.02,552.39 553.84,552.00 549.45,552.00 C545.01,552.00 544.03,552.33 543.50,554.00 ZM 710.50 495.50 L 711.13 502.00 L 696.00 502.00 L 696.00 494.91 L 703.25 495.21 ZM 722.00 547.50 C722.00,554.39 721.72,556.00 720.50,556.00 C719.29,556.00 719.00,554.40 719.00,547.57 C719.00,539.17 718.99,539.13 716.33,538.82 C714.86,538.64 713.47,537.94 713.24,537.25 C712.94,536.32 714.80,536.00 720.42,536.00 C726.49,536.00 728.00,536.30 728.00,537.50 L 722.00 539.00 ZM 893.00 501.07 C893.00,501.58 895.51,502.00 898.57,502.00 C898.79,502.00 899.00,502.00 899.20,502.00 C901.53,502.01 902.87,502.01 903.35,501.37 C904.00,500.51 903.11,498.49 901.01,493.75 C900.88,493.44 900.73,493.12 900.59,492.79 L 898.37 487.76 L 895.68 493.94 C894.21,497.35 893.00,500.55 893.00,501.07 ZM 461.39 499.59 C460.81,501.90 461.00,502.00 465.83,502.00 C468.61,502.00 471.06,501.66 471.28,501.25 C471.50,500.84 470.43,497.58 468.91,494.00 L 466.14 487.51 L 464.07 492.35 C462.93,495.01 461.72,498.27 461.39,499.59 ZM 784.00 543.00 C784.00,546.99 784.01,547.00 787.93,547.00 C790.17,547.00 792.53,546.32 793.43,545.43 C796.86,542.00 794.47,539.00 788.30,539.00 L 784.00 539.00 ZM 649.00 543.00 C649.00,546.99 649.01,547.00 652.93,547.00 C655.17,547.00 657.53,546.32 658.43,545.43 C660.29,543.57 660.30,543.44 658.96,540.93 C658.18,539.47 656.86,539.00 653.46,539.00 L 649.00 539.00 ZM 579.00 550.50 L 579.00 554.00 L 583.93 554.00 C588.03,554.00 588.98,553.65 589.52,551.95 C590.52,548.80 588.29,547.00 583.38,547.00 C579.04,547.00 579.00,547.03 579.00,550.50 ZM 523.00 555.00 C523.00,555.56 520.15,556.00 516.46,556.00 L 509.93 556.00 L 510.21 546.49 C510.57,534.56 512.39,533.85 512.79,545.49 L 513.08 554.00 L 518.04 554.00 C520.77,554.00 523.00,554.45 523.00,555.00 ZM 579.19 541.75 C578.87,544.99 578.89,545.00 583.47,545.00 C586.80,545.00 588.24,544.55 588.69,543.36 C589.78,540.52 587.59,538.50 583.39,538.50 C579.73,538.50 579.48,538.69 579.19,541.75 ZM 546.03 548.75 C546.01,549.55 547.45,550.00 550.00,550.00 C552.20,550.00 554.00,549.83 554.00,549.63 C554.00,549.42 553.02,547.06 551.83,544.38 L 549.66 539.50 L 547.86 543.50 C546.87,545.70 546.04,548.06 546.03,548.75 ZM 684.00 549.58 C684.00,549.81 685.80,550.00 688.00,550.00 C692.53,550.00 692.72,549.42 690.04,543.50 L 688.23 539.50 L 686.12 544.33 C684.95,546.99 684.00,549.35 684.00,549.58 ZM 817.00 546.56 C817.00,552.19 816.60,556.00 816.00,556.00 C815.40,556.00 815.00,551.98 815.00,545.94 C815.00,539.49 815.36,536.10 816.00,536.50 C816.55,536.84 817.00,541.34 817.00,546.56 Z" fill="rgb(59,135,134)"/>
<path d="M 0.00 384.00 L 0.00 0.00 L 682.50 0.00 L 1365.00 0.00 L 1365.00 384.00 L 1365.00 768.00 L 682.50 768.00 L 0.00 768.00 L 0.00 384.00 ZM 523.00 555.00 C523.00,554.45 520.77,554.00 518.04,554.00 L 513.08 554.00 L 512.79 545.49 C512.39,533.85 510.57,534.56 510.21,546.49 L 509.93 556.00 L 516.46 556.00 C520.15,556.00 523.00,555.56 523.00,555.00 ZM 543.50 554.00 C544.03,552.33 545.01,552.00 549.45,552.00 C553.84,552.00 555.02,552.39 556.27,554.25 C557.10,555.49 558.07,556.22 558.42,555.89 C559.42,554.93 550.86,535.88 549.61,536.29 C548.45,536.67 545.08,543.20 541.90,551.25 C540.37,555.14 540.29,556.00 541.45,556.00 C542.23,556.00 543.15,555.10 543.50,554.00 ZM 590.80 554.80 C592.27,553.33 592.37,548.77 590.96,547.36 C590.30,546.70 590.25,545.46 590.84,543.91 C592.88,538.49 589.28,535.54 581.40,536.18 L 577.50 536.50 L 577.21 546.25 L 576.93 556.00 L 583.26 556.00 C586.86,556.00 590.12,555.48 590.80,554.80 ZM 626.08 553.08 C630.06,549.09 630.07,544.23 626.10,539.79 C618.56,531.35 605.47,540.38 610.36,550.64 C613.25,556.70 621.22,557.94 626.08,553.08 ZM 649.00 552.50 C649.00,549.45 649.32,549.00 651.45,549.00 C653.07,549.00 654.80,550.18 656.57,552.50 C659.93,556.91 661.84,557.09 659.15,552.74 L 657.14 549.48 L 659.57 547.32 C662.67,544.56 662.66,541.57 659.55,538.45 C657.59,536.50 656.07,536.00 652.05,536.00 L 647.00 536.00 L 647.00 546.00 C647.00,552.00 647.40,556.00 648.00,556.00 C648.55,556.00 649.00,554.42 649.00,552.50 ZM 682.00 554.00 C682.87,552.38 684.09,552.00 688.47,552.00 C692.99,552.00 693.97,552.33 694.50,554.00 C694.85,555.10 695.77,556.00 696.54,556.00 C698.18,556.00 697.96,555.33 692.66,543.75 C690.71,539.49 688.69,536.00 688.17,536.00 C687.35,536.00 679.00,553.64 679.00,555.37 C679.00,556.78 681.00,555.87 682.00,554.00 ZM 722.00 547.50 L 722.00 539.00 L 725.00 539.00 C727.00,539.00 728.00,538.50 728.00,537.50 C728.00,536.30 726.49,536.00 720.42,536.00 C714.80,536.00 712.94,536.32 713.24,537.25 C713.47,537.94 714.86,538.64 716.33,538.82 C718.99,539.13 719.00,539.17 719.00,547.57 C719.00,554.40 719.29,556.00 720.50,556.00 C721.72,556.00 722.00,554.39 722.00,547.50 ZM 761.08 553.08 C767.78,546.37 761.45,534.16 752.43,536.43 C749.09,537.27 745.27,541.09 744.43,544.43 C742.16,553.47 754.35,559.80 761.08,553.08 ZM 784.00 552.50 C784.00,549.35 784.27,549.00 786.75,549.01 C788.79,549.02 790.09,549.93 791.76,552.51 C793.00,554.43 794.46,556.00 795.01,556.00 C796.47,556.00 796.23,555.11 794.00,552.27 L 792.00 549.73 L 794.50 547.41 C797.66,544.48 797.68,541.58 794.55,538.45 C792.59,536.50 791.07,536.00 787.05,536.00 L 782.00 536.00 L 782.00 546.00 C782.00,552.00 782.40,556.00 783.00,556.00 C783.55,556.00 784.00,554.42 784.00,552.50 ZM 817.00 546.56 C817.00,541.34 816.55,536.84 816.00,536.50 C815.36,536.10 815.00,539.49 815.00,545.94 C815.00,551.98 815.40,556.00 816.00,556.00 C816.60,556.00 817.00,552.19 817.00,546.56 ZM 849.40 554.86 C851.73,553.80 855.00,548.66 855.00,546.05 C855.00,543.45 851.77,538.93 848.82,537.41 C846.22,536.06 845.01,535.98 841.87,536.92 C837.16,538.33 835.00,541.28 835.00,546.30 C835.00,553.66 842.40,558.05 849.40,554.86 ZM 436.00 513.98 C437.92,513.43 440.62,512.10 442.00,511.03 L 444.50 509.08 L 441.99 506.55 L 439.47 504.02 L 435.17 506.15 C431.39,508.01 430.38,508.13 426.94,507.10 C416.81,504.07 414.99,489.98 424.04,484.64 C428.40,482.06 435.92,482.88 438.08,486.18 C438.81,487.29 444.00,483.29 444.00,481.61 C444.00,480.93 442.09,479.29 439.75,477.96 C434.72,475.11 426.24,474.78 421.48,477.25 C399.46,488.66 412.17,520.82 436.00,513.98 ZM 512.40 513.61 C516.99,511.69 519.00,508.44 519.00,502.95 C519.00,497.23 516.73,494.85 509.00,492.49 C498.89,489.41 498.00,488.92 498.00,486.41 C498.00,481.83 503.66,480.76 510.21,484.11 L 514.33 486.21 L 516.14 483.86 C518.49,480.81 518.45,480.34 515.74,478.56 C511.92,476.06 503.69,474.74 499.29,475.92 C492.22,477.82 487.99,484.80 490.15,491.00 C491.24,494.14 496.83,497.54 502.50,498.53 C509.76,499.79 513.06,503.54 509.80,506.80 C507.90,508.70 501.47,508.20 496.46,505.77 L 491.86 503.53 L 489.94 506.02 C488.03,508.50 488.03,508.50 490.72,510.70 C495.67,514.75 506.26,516.17 512.40,513.61 ZM 666.50 512.00 C682.80,501.93 678.06,479.09 658.95,475.63 C651.05,474.20 640.57,480.06 637.35,487.72 C635.48,492.18 635.70,498.75 637.88,503.50 C639.97,508.05 641.82,509.87 647.50,512.96 C652.58,515.72 661.17,515.29 666.50,512.00 ZM 757.50 513.14 C759.70,512.14 762.08,510.61 762.79,509.76 C763.89,508.43 763.65,507.88 761.20,506.14 L 758.32 504.09 L 754.25 506.11 C740.92,512.70 730.78,494.39 742.61,485.09 C745.96,482.46 751.48,482.39 755.64,484.92 L 758.78 486.84 L 761.43 484.07 C764.33,481.04 764.10,480.54 758.50,477.76 C750.02,473.54 740.72,475.32 734.19,482.41 C725.21,492.15 728.21,506.93 740.31,512.57 C746.48,515.44 752.04,515.62 757.50,513.14 ZM 456.50 511.00 C458.04,508.03 458.13,508.00 466.40,508.00 C474.74,508.00 474.76,508.01 476.00,511.00 C477.11,513.69 477.70,514.00 481.62,514.00 C484.03,514.00 486.00,513.82 486.00,513.60 C486.00,513.28 480.07,498.60 472.32,479.75 C470.88,476.22 470.52,476.00 466.42,476.00 C461.20,476.00 461.68,475.24 452.93,497.12 C449.55,505.58 446.58,512.84 446.33,513.25 C446.08,513.66 447.92,514.00 450.42,514.00 C454.44,514.00 455.12,513.66 456.50,511.00 ZM 543.22 498.75 L 543.50 483.50 L 549.25 483.20 L 555.00 482.90 L 555.00 479.45 L 555.00 476.00 L 539.00 476.00 L 523.00 476.00 L 523.00 479.45 L 523.00 482.90 L 528.75 483.20 L 534.50 483.50 L 534.78 498.75 L 535.05 514.00 L 539.00 514.00 L 542.95 514.00 L 543.22 498.75 ZM 568.00 495.00 L 568.00 476.00 L 564.00 476.00 L 560.00 476.00 L 560.00 495.00 L 560.00 514.00 L 564.00 514.00 L 568.00 514.00 L 568.00 495.00 ZM 602.00 510.50 L 602.00 507.00 L 592.50 507.00 L 583.00 507.00 L 583.00 491.50 L 583.00 476.00 L 578.50 476.00 L 574.00 476.00 L 574.00 495.00 L 574.00 514.00 L 588.00 514.00 L 602.00 514.00 L 602.00 510.50 ZM 633.00 510.50 L 633.00 507.00 L 623.50 507.00 L 614.00 507.00 L 614.00 491.50 L 614.00 476.00 L 610.00 476.00 L 606.00 476.00 L 606.00 495.00 L 606.00 514.00 L 619.50 514.00 L 633.00 514.00 L 633.00 510.50 ZM 777.00 506.00 L 777.00 498.00 L 786.00 498.00 L 795.00 498.00 L 795.00 506.00 L 795.00 514.00 L 799.00 514.00 L 803.00 514.00 L 803.00 495.00 L 803.00 476.00 L 799.00 476.00 L 795.00 476.00 L 795.00 483.50 L 795.00 491.00 L 786.00 491.00 L 777.00 491.00 L 777.00 483.50 L 777.00 476.00 L 773.00 476.00 L 769.00 476.00 L 769.00 495.00 L 769.00 514.00 L 773.00 514.00 L 777.00 514.00 L 777.00 506.00 ZM 817.00 495.00 L 817.00 476.00 L 813.00 476.00 L 809.00 476.00 L 809.00 495.00 L 809.00 514.00 L 813.00 514.00 L 817.00 514.00 L 817.00 495.00 ZM 849.23 512.12 C855.93,509.25 860.99,501.88 860.99,495.00 C860.99,491.03 858.57,485.68 855.37,482.57 C850.50,477.84 844.46,476.00 833.82,476.00 L 825.00 476.00 L 825.00 495.00 L 825.00 514.00 L 834.92 514.00 C842.41,514.00 845.91,513.54 849.23,512.12 ZM 874.00 495.00 L 874.00 476.00 L 870.00 476.00 L 866.00 476.00 L 866.00 495.00 L 866.00 514.00 L 870.00 514.00 L 874.00 514.00 L 874.00 495.00 ZM 888.69 511.00 L 889.83 508.00 L 898.50 508.00 L 907.17 508.00 L 908.31 511.00 C909.32,513.69 909.88,514.00 913.72,514.00 C916.07,514.00 918.00,513.65 918.00,513.23 C918.00,512.48 916.26,508.18 907.29,486.70 L 902.77 475.90 L 898.21 476.20 L 893.65 476.50 L 886.38 494.00 C882.38,503.62 879.08,512.06 879.05,512.75 C879.02,513.56 880.50,514.00 883.28,514.00 C887.12,514.00 887.68,513.69 888.69,511.00 ZM 931.00 508.67 C931.00,504.28 931.44,502.94 933.51,500.99 C935.80,498.84 936.12,498.78 937.26,500.29 C948.37,515.08 947.09,513.92 952.31,513.96 C957.90,514.01 958.19,514.94 948.71,502.22 C940.87,491.70 940.70,493.68 950.34,483.00 L 956.21 476.50 L 951.69 476.20 C946.78,475.87 947.94,474.97 934.70,489.50 L 931.05 493.50 L 931.03 484.75 L 931.00 476.00 L 927.00 476.00 L 923.00 476.00 L 923.00 495.00 L 923.00 514.00 L 927.00 514.00 L 931.00 514.00 L 931.00 508.67 ZM 710.81 498.75 L 710.50 495.50 L 703.25 495.21 L 696.00 494.91 L 696.00 498.46 L 696.00 502.00 L 703.56 502.00 L 711.13 502.00 L 710.81 498.75 ZM 543.71 429.84 C547.76,428.32 551.03,426.09 554.65,422.39 C560.91,415.98 563.45,409.42 563.42,399.79 C563.36,386.36 554.08,374.25 541.04,370.59 C536.40,369.29 529.61,369.00 503.68,369.00 L 472.00 369.00 L 472.00 342.75 C471.99,328.31 471.73,296.25 471.41,271.50 L 470.83 226.50 L 467.86 220.28 C456.59,196.60 420.53,198.05 411.15,222.55 C409.01,228.16 409.00,228.46 409.00,318.01 C409.00,405.82 409.05,407.94 411.01,412.53 C415.04,421.92 420.37,427.05 429.33,430.15 C434.03,431.77 439.22,431.94 486.21,431.97 C536.83,432.00 538.05,431.95 543.71,429.84 ZM 712.50 428.62 C729.58,424.33 741.27,418.95 748.26,412.17 C762.59,398.27 758.74,374.62 740.62,365.26 C736.45,363.10 734.11,362.60 728.00,362.57 C720.95,362.54 719.88,362.84 710.00,367.72 C697.97,373.67 693.32,374.94 683.46,374.98 C668.77,375.03 656.62,369.68 644.95,358.03 C626.89,340.00 622.82,315.16 634.14,292.00 C644.34,271.15 666.14,258.33 687.98,260.36 C696.27,261.13 699.09,262.05 711.00,267.81 C719.49,271.92 721.25,272.42 727.50,272.44 C738.97,272.47 748.47,266.75 753.80,256.59 C756.07,252.26 756.47,250.30 756.42,243.50 C756.35,233.98 754.83,229.94 748.87,223.47 C738.60,212.33 708.97,203.00 683.89,203.00 C651.97,203.00 621.89,215.03 598.55,237.13 C588.13,246.99 581.37,255.99 575.03,268.44 C569.13,280.02 566.54,287.66 564.53,299.38 C554.81,355.93 593.99,412.97 652.86,427.97 C666.20,431.37 671.56,431.92 687.50,431.51 C699.26,431.21 704.66,430.59 712.50,428.62 ZM 909.71 429.11 C925.03,425.62 940.56,418.96 947.42,412.94 C952.91,408.12 956.50,399.82 956.49,392.00 C956.46,375.07 944.12,362.56 927.45,362.56 C920.99,362.56 919.44,362.99 910.66,367.29 C905.35,369.90 898.43,372.70 895.29,373.51 C867.59,380.73 837.05,361.59 828.98,331.97 C827.33,325.94 827.31,310.76 828.93,304.00 C832.75,288.06 844.87,273.03 859.66,265.86 C876.43,257.75 889.86,258.12 909.35,267.25 C919.24,271.87 921.24,272.46 927.00,272.45 C938.43,272.42 948.69,265.88 953.61,255.50 C955.45,251.61 955.98,248.84 955.97,243.00 C955.94,226.83 947.36,218.05 923.32,209.61 C885.87,196.46 842.19,203.19 809.99,227.07 C772.88,254.58 755.47,298.50 765.01,340.49 C772.89,375.17 800.36,407.27 834.72,421.95 C844.46,426.11 856.91,429.68 866.32,431.01 C876.69,432.47 899.35,431.48 909.71,429.11 ZM 892.72 347.59 C901.91,345.14 908.46,339.75 913.21,330.72 C916.42,324.63 916.42,310.37 913.21,304.28 C909.71,297.63 905.17,293.12 898.59,289.74 C886.75,283.68 872.02,286.04 862.53,295.53 C850.65,307.42 850.63,327.48 862.49,339.30 C870.91,347.70 881.45,350.59 892.72,347.59 ZM 546.03 548.75 C546.04,548.06 546.87,545.70 547.86,543.50 L 549.66 539.50 L 551.83 544.38 C553.02,547.06 554.00,549.42 554.00,549.63 C554.00,549.83 552.20,550.00 550.00,550.00 C547.45,550.00 546.01,549.55 546.03,548.75 ZM 579.00 550.50 C579.00,547.03 579.04,547.00 583.38,547.00 C588.29,547.00 590.52,548.80 589.52,551.95 C588.98,553.65 588.03,554.00 583.93,554.00 L 579.00 554.00 L 579.00 550.50 ZM 579.19 541.75 C579.48,538.69 579.73,538.50 583.39,538.50 C587.59,538.50 589.78,540.52 588.69,543.36 C588.24,544.55 586.80,545.00 583.47,545.00 C578.89,545.00 578.87,544.99 579.19,541.75 ZM 614.17 551.69 C611.18,548.50 611.21,542.67 614.22,540.56 C617.75,538.09 622.51,538.57 624.93,541.63 C627.68,545.13 627.55,548.55 624.55,551.55 C621.40,554.70 617.06,554.75 614.17,551.69 ZM 649.00 543.00 L 649.00 539.00 L 653.46 539.00 C656.86,539.00 658.18,539.47 658.96,540.93 C660.30,543.44 660.29,543.57 658.43,545.43 C657.53,546.32 655.17,547.00 652.93,547.00 C649.01,547.00 649.00,546.99 649.00,543.00 ZM 684.00 549.58 C684.00,549.35 684.95,546.99 686.12,544.33 L 688.23 539.50 L 690.04 543.50 C692.72,549.42 692.53,550.00 688.00,550.00 C685.80,550.00 684.00,549.81 684.00,549.58 ZM 749.17 551.69 C746.41,548.74 746.32,543.68 749.00,541.00 C751.98,538.02 757.33,538.33 759.93,541.63 C762.68,545.13 762.55,548.55 759.55,551.55 C756.40,554.70 752.06,554.75 749.17,551.69 ZM 784.00 543.00 L 784.00 539.00 L 788.30 539.00 C794.47,539.00 796.86,542.00 793.43,545.43 C792.53,546.32 790.17,547.00 787.93,547.00 C784.01,547.00 784.00,546.99 784.00,543.00 ZM 839.45 551.55 C836.30,548.40 836.25,544.06 839.31,541.17 C844.27,536.52 852.00,539.66 852.00,546.33 C852.00,553.16 844.28,556.37 839.45,551.55 ZM 650.98 506.17 C643.22,502.08 641.95,492.19 648.42,486.25 C656.46,478.88 668.00,484.52 668.00,495.82 C668.00,500.52 665.08,504.65 660.36,506.62 C656.08,508.41 655.16,508.36 650.98,506.17 ZM 461.39 499.59 C461.72,498.27 462.93,495.01 464.07,492.35 L 466.14 487.51 L 468.91 494.00 C470.43,497.58 471.50,500.84 471.28,501.25 C471.06,501.66 468.61,502.00 465.83,502.00 C461.00,502.00 460.81,501.90 461.39,499.59 ZM 833.00 495.00 L 833.00 483.00 L 836.25 483.01 C846.09,483.02 852.00,487.50 852.00,494.92 C852.00,502.82 847.17,507.00 838.05,507.00 L 833.00 507.00 L 833.00 495.00 ZM 893.00 501.07 C893.00,500.55 894.21,497.35 895.68,493.94 L 898.37 487.76 L 900.59 492.79 C904.80,502.34 904.88,502.00 898.57,502.00 C895.51,502.00 893.00,501.58 893.00,501.07 Z" fill="rgb(254,254,254)"/>
</g>
</svg>